<?xml version="1.0" standalone="no"?>
<!DOCTYPE svg PUBLIC "-//W3C//DTD SVG 20010904//EN"
 "http://www.w3.org/TR/2001/REC-SVG-20010904/DTD/svg10.dtd">
<svg version="1.0" xmlns="http://www.w3.org/2000/svg"
 width="292.000000pt" height="292.000000pt" viewBox="0 0 292.000000 292.000000"
 preserveAspectRatio="xMidYMid meet">
<metadata>
Created by potrace 1.14, written by Peter Selinger 2001-2017
</metadata>
<g transform="translate(0.000000,292.000000) scale(0.100000,-0.100000)"
fill="#000000" stroke="none">
<path d="M1494 2840 c-33 -13 -54 -50 -54 -95 0 -34 5 -43 33 -62 17 -12 41
-25 52 -29 11 -4 43 -17 70 -29 28 -12 67 -28 87 -34 36 -12 36 -13 26 -44 -6
-18 -13 -35 -17 -39 -3 -4 -33 0 -66 8 -33 7 -103 16 -155 19 -52 3 -109 8
-127 11 -110 17 -537 -87 -571 -140 -4 -6 -36 -29 -72 -51 -64 -38 -131 -86
-199 -142 -18 -15 -58 -59 -89 -98 -31 -38 -61 -73 -68 -77 -17 -11 -91 -130
-92 -148 0 -8 -16 -51 -36 -95 -19 -44 -47 -123 -61 -175 -14 -52 -32 -115
-39 -139 -26 -79 -3 -379 39 -527 47 -163 120 -301 225 -428 33 -40 60 -76 60
-81 0 -10 78 -85 89 -85 4 0 28 -15 52 -33 144 -110 209 -146 344 -192 61 -21
115 -41 120 -45 50 -36 432 -49 515 -18 25 9 76 24 114 33 76 17 181 57 229
87 18 11 60 37 95 59 34 21 68 39 75 39 14 0 167 128 167 140 0 5 26 39 58 77
116 135 185 263 232 430 26 93 38 154 67 363 9 66 -25 269 -63 380 -20 58 -40
109 -45 115 -19 20 -7 34 47 59 31 14 60 26 65 26 5 0 15 -15 23 -33 7 -19 26
-44 42 -56 60 -47 151 3 141 78 -5 46 -72 204 -128 304 -37 66 -47 78 -75 83
-40 7 -69 -8 -94 -49 -24 -39 -25 -78 -4 -119 18 -36 18 -36 -64 -74 -29 -13
-58 -22 -63 -18 -5 3 -18 23 -29 44 -23 44 -168 189 -255 254 -32 25 -96 66
-142 91 -46 26 -83 49 -83 53 0 19 26 72 35 72 6 0 58 -18 115 -41 137 -53
173 -51 205 11 19 36 19 63 0 99 -15 29 -77 66 -108 63 -9 0 -77 22 -150 50
-72 28 -183 68 -245 89 -63 22 -127 46 -142 54 -32 17 -55 18 -86 5z m1 -501
c66 -11 134 -23 150 -26 109 -18 294 -127 425 -251 183 -172 260 -333 319
-668 17 -95 13 -186 -13 -297 -29 -120 -86 -272 -128 -341 -59 -97 -275 -311
-368 -365 -144 -83 -368 -144 -530 -144 -206 0 -481 84 -587 180 -64 58 -122
103 -131 103 -12 0 -87 84 -135 151 -60 84 -134 245 -164 354 -25 92 -27 114
-26 280 0 165 3 187 27 270 17 57 55 140 104 228 77 139 114 183 262 317 92
82 280 163 480 206 133 28 168 29 315 3z"/>
<path d="M1502 1955 c-17 -14 -33 -38 -37 -54 -6 -30 -38 -115 -130 -351 -32
-80 -64 -164 -73 -186 -13 -35 -14 -48 -4 -83 7 -22 19 -41 27 -41 14 0 177
-60 230 -85 71 -32 199 -75 226 -75 61 0 98 35 99 93 0 52 -27 76 -125 112
-44 16 -104 41 -134 57 -29 15 -59 28 -66 28 -33 0 -28 18 79 327 67 192 71
226 32 260 -37 31 -86 30 -124 -2z"/>
</g>
</svg>
